<?xml version="1.0" encoding="UTF-8"?>
<svg width="0" height="0" class="hidden">
  <symbol id="icon-search" viewBox="0 0 24 24">
    <path d="M15.5 14h-.79l-.28-.27A6.471 6.471 0 0016 9.5 6.5 6.5 0 109.5 16c1.61 0 3.09-.59 4.23-1.57l.27.28v.79l5 4.99L20.49 19l-4.99-5zm-6 0C7.01 14 5 11.99 5 9.5S7.01 5 9.5 5 14 7.01 14 9.5 11.99 14 9.5 14z" fill="currentColor"/>
  </symbol>
  <symbol id="icon-360" viewBox="0 0 24 24">
    <path d="M12 7C6.48 7 2 9.24 2 12c0 2.24 2.94 4.13 7 4.77V20l4-4-4-4v2.73c-3.15-.56-5-1.9-5-2.73 0-1.06 3.04-3 8-3s8 1.94 8 3c0 .73-1.46 1.89-4 2.53v2.05c3.53-.77 6-2.53 6-4.58 0-2.76-4.48-5-10-5z" fill="currentColor"/>
  </symbol>
  <symbol id="icon-insights" viewBox="0 0 24 24">
    <path d="M19 3H5c-1.1 0-2 .9-2 2v14c0 1.1.9 2 2 2h14c1.1 0 2-.9 2-2V5c0-1.1-.9-2-2-2zM9 17H7v-7h2v7zm4 0h-2V7h2v10zm4 0h-2v-4h2v4z" fill="currentColor"/>
  </symbol>
  <symbol id="icon-tour" viewBox="0 0 24 24">
    <path d="M12 2C8.13 2 5 5.13 5 9c0 5.25 7 13 7 13s7-7.75 7-13c0-3.87-3.13-7-7-7zm0 9.5c-1.38 0-2.5-1.12-2.5-2.5s1.12-2.5 2.5-2.5 2.5 1.12 2.5 2.5-1.12 2.5-2.5 2.5z" fill="currentColor"/>
  </symbol>
  <symbol id="icon-voice" viewBox="0 0 24 24">
    <path d="M12 14c1.66 0 3-1.34 3-3V5c0-1.66-1.34-3-3-3S9 3.34 9 5v6c0 1.66 1.34 3 3 3zm5.91-3c-.49 0-.9.36-.98.85C16.52 14.2 14.47 16 12 16s-4.52-1.8-4.93-4.15c-.08-.49-.49-.85-.98-.85-.61 0-1.09.54-1 1.14.49 3 2.89 5.35 5.91 5.78V20c0 .55.45 1 1 1s1-.45 1-1v-2.08c3.02-.43 5.42-2.78 5.91-5.78.1-.6-.39-1.14-1-1.14z" fill="currentColor"/>
  </symbol>
</svg> 