<?xml version="1.0" encoding="UTF-8"?>
<svg width="24" height="24" viewBox="0 0 24 24" fill="none" xmlns="http://www.w3.org/2000/svg">
  <path d="M17 18C15.89 18 15 18.89 15 20C15 21.11 15.89 22 17 22C18.11 22 19 21.11 19 20C19 18.89 18.11 18 17 18ZM1 2V4H3L6.6 11.59L5.25 14.04C5.09 14.32 5 14.65 5 15C5 16.11 5.89 17 7 17H19V15H7.42C7.28 15 7.17 14.89 7.17 14.75L7.2 14.63L8.1 13H15.55C16.3 13 16.96 12.59 17.3 11.97L20.88 5.5C20.96 5.34 21 5.17 21 5C21 4.45 20.55 4 20 4H5.21L4.27 2M7 18C5.89 18 5 18.89 5 20C5 21.11 5.89 22 7 22C8.11 22 9 21.11 9 20C9 18.89 8.11 18 7 18Z" fill="#3A8DDE"/>
</svg> 